<?xml version="1.0" encoding="utf-8"?><!DOCTYPE svg PUBLIC "-//W3C//DTD SVG 1.1//EN" "http://www.w3.org/Graphics/SVG/1.1/DTD/svg11.dtd"><svg xmlns="http://www.w3.org/2000/svg" viewBox="0 0 29 29" shape-rendering="crispEdges"><path stroke="#b4a5ff" d="M0 0.5h7m1 0h2m1 0h1m2 0h1m1 0h2m2 0h1m1 0h7M0 1.5h1m5 0h1m1 0h2m2 0h5m1 0h1m1 0h1m1 0h1m5 0h1M0 2.5h1m1 0h3m1 0h1m2 0h1m1 0h1m1 0h2m1 0h1m5 0h1m1 0h3m1 0h1M0 3.5h1m1 0h3m1 0h1m1 0h3m1 0h1m2 0h1m1 0h1m1 0h1m2 0h1m1 0h3m1 0h1M0 4.5h1m1 0h3m1 0h1m1 0h2m2 0h3m2 0h1m2 0h1m1 0h1m1 0h3m1 0h1M0 5.5h1m5 0h1m1 0h2m1 0h3m1 0h4m1 0h1m1 0h1m5 0h1M0 6.5h7m1 0h1m1 0h1m1 0h1m1 0h1m1 0h1m1 0h1m1 0h1m1 0h7M9 7.5h3m1 0h1M3 8.5h1m2 0h1m6 0h1m2 0h2m1 0h1m3 0h3m1 0h2M0 9.5h1m9 0h2m4 0h2m1 0h3m2 0h2m2 0h1M2 10.5h1m1 0h3m1 0h2m1 0h1m1 0h1m1 0h2m3 0h3m3 0h1m1 0h1M1 11.5h3m1 0h1m1 0h1m2 0h1m1 0h2m1 0h1m1 0h1m4 0h4m1 0h1M2 12.5h8m4 0h1m1 0h2m1 0h3m4 0h1M1 13.5h1m3 0h1m1 0h1m7 0h1m2 0h4m1 0h4m1 0h1M0 14.5h1m3 0h4m6 0h1m3 0h3m1 0h5M0 15.5h2m1 0h3m2 0h4m3 0h1m7 0h4M1 16.5h3m1 0h2m3 0h2m1 0h1m2 0h3m4 0h2m1 0h2M1 17.5h1m1 0h2m2 0h3m1 0h2m1 0h1m4 0h2m4 0h4M0 18.5h1m3 0h3m3 0h2m1 0h1m4 0h1m2 0h4m1 0h2M3 19.5h3m1 0h3m2 0h1m1 0h1m6 0h1m1 0h1M0 20.5h1m2 0h5m2 0h2m1 0h6m1 0h5m2 0h1M8 21.5h4m2 0h4m1 0h2m3 0h5M0 22.5h7m4 0h1m1 0h1m1 0h1m1 0h4m1 0h1m1 0h1m1 0h3M0 23.5h1m5 0h1m2 0h1m4 0h1m1 0h5m3 0h1M0 24.5h1m1 0h3m1 0h1m2 0h1m4 0h1m1 0h2m1 0h6m2 0h2M0 25.5h1m1 0h3m1 0h1m1 0h2m2 0h2m5 0h1m1 0h1m3 0h4M0 26.5h1m1 0h3m1 0h1m3 0h1m1 0h1m1 0h1m3 0h2m1 0h1m1 0h1m2 0h1m1 0h1M0 27.5h1m5 0h1m2 0h2m3 0h1m1 0h1m1 0h2m2 0h3m1 0h2M0 28.5h7m3 0h1m7 0h1m3 0h6"/></svg>
